<?xml version="1.0" encoding="utf-8"?>
<!-- Generator: Adobe Illustrator 23.0.1, SVG Export Plug-In . SVG Version: 6.00 Build 0)  -->
<svg version="1.1"
	 id="svg2" xmlns:cc="http://creativecommons.org/ns#" xmlns:dc="http://purl.org/dc/elements/1.1/" xmlns:rdf="http://www.w3.org/1999/02/22-rdf-syntax-ns#" xmlns:svg="http://www.w3.org/2000/svg"
	 xmlns="http://www.w3.org/2000/svg" xmlns:xlink="http://www.w3.org/1999/xlink" x="0px" y="0px" viewBox="0 0 540 540"
	 style="enable-background:new 0 0 540 540;" xml:space="preserve">
<style type="text/css">
	.st0{fill:#FE2712;}
	.st1{fill:#FB9902;}
	.st2{fill:#FD5308;}
	.st3{fill:#FEFE33;}
	.st4{fill:#FABC02;}
	.st5{fill:#66B032;}
	.st6{fill:#D0EA2B;}
	.st7{fill:#0247FE;}
	.st8{fill:#0391CE;}
	.st9{fill:#8601AF;}
	.st10{fill:#3D01A4;}
	.st11{fill:#A7194B;}
</style>
<path id="path8" class="st0" d="M530.4,200.2c12.8,47.9,12.8,91.6,0,139.5l-20.8,11.3L270,270l241-80L530.4,200.2z"/>
<path id="path12" class="st1" d="M339.8,9.6c47.9,12.8,85.8,34.7,120.8,69.8l-2.6,27.5L270,270l46.7-247.5L339.8,9.6z"/>
<path id="path10" class="st2" d="M460.6,79.4c35.1,35.1,56.9,72.9,69.8,120.8L270,270L460.6,79.4z"/>
<path id="path16" class="st3" d="M79.4,79.4c35.1-35.1,72.9-56.9,120.8-69.8l24.6,14.8L270,270L81.2,111.9L79.4,79.4z"/>
<path id="path14" class="st4" d="M200.2,9.6c47.9-12.8,91.6-12.8,139.5,0L270,270L200.2,9.6z"/>
<path id="path20" class="st5" d="M9.6,339.8c-12.8-47.9-12.8-91.6,0-139.5l29.1-15.5L270,270L35.7,353.1L9.6,339.8z"/>
<path id="path18" class="st6" d="M9.6,200.2c12.8-47.9,34.7-85.8,69.8-120.8L270,270L9.6,200.2z"/>
<path id="path24" class="st7" d="M200.2,530.4c-47.9-12.8-85.8-34.7-120.8-69.8l3.6-35L270,270l-44.9,247.6L200.2,530.4z"/>
<path id="path22" class="st8" d="M79.4,460.6c-35.1-35.1-56.9-72.9-69.8-120.8L270,270L79.4,460.6z"/>
<path id="path28" class="st9" d="M460.6,460.6c-35.1,35.1-72.9,56.9-120.8,69.8L314,515.8L270,270l191.1,166.3L460.6,460.6z"/>
<path id="path26" class="st10" d="M339.8,530.4c-47.9,12.8-91.6,12.8-139.5,0L270,270L339.8,530.4z"/>
<path id="path30" class="st11" d="M530.4,339.8c-12.8,47.9-34.7,85.8-69.8,120.8L270,270L530.4,339.8z"/>
<circle id="circle32" cx="270" cy="270" r="130.2"/>
<g id="circle32_2_">
	<path d="M270,20c33.8,0,66.5,6.6,97.3,19.6c29.8,12.6,56.5,30.6,79.5,53.6c23,23,41,49.7,53.6,79.5c13,30.8,19.6,63.5,19.6,97.3
		s-6.6,66.5-19.6,97.3c-12.6,29.8-30.6,56.5-53.6,79.5s-49.7,41-79.5,53.6c-30.8,13-63.5,19.6-97.3,19.6s-66.5-6.6-97.3-19.6
		c-29.8-12.6-56.5-30.6-79.5-53.6s-41-49.7-53.6-79.5C26.6,336.5,20,303.8,20,270s6.6-66.5,19.6-97.3c12.6-29.8,30.6-56.5,53.6-79.5
		s49.7-41,79.5-53.6C203.5,26.6,236.2,20,270,20 M270,0C120.9,0,0,120.9,0,270s120.9,270,270,270s270-120.9,270-270S419.1,0,270,0
		L270,0z"/>
</g>
</svg>
