<?xml version="1.0" encoding="utf-8"?>
<!-- Generator: Adobe Illustrator 23.0.1, SVG Export Plug-In . SVG Version: 6.00 Build 0)  -->
<svg version="1.1"
	 id="svg2" xmlns:cc="http://creativecommons.org/ns#" xmlns:dc="http://purl.org/dc/elements/1.1/" xmlns:rdf="http://www.w3.org/1999/02/22-rdf-syntax-ns#" xmlns:svg="http://www.w3.org/2000/svg"
	 xmlns="http://www.w3.org/2000/svg" xmlns:xlink="http://www.w3.org/1999/xlink" x="0px" y="0px" viewBox="0 0 540 540"
	 style="enable-background:new 0 0 540 540;" xml:space="preserve">
<style type="text/css">
	.st0{fill:#FB9902;}
	.st1{fill:#FEFE33;}
	.st2{fill:#FABC02;}
	.st3{fill:#66B032;}
	.st4{fill:#D0EA2B;}
	.st5{fill:#0247FE;}
	.st6{fill:#0391CE;}
	.st7{fill:#8601AF;}
	.st8{fill:#3D01A4;}
	.st9{fill:#FFFFFF;}
</style>
<g>
	<path id="path12" class="st0" d="M373.5,9.6c47.9,12.8,85.8,34.7,120.8,69.8l12,12.9l-14.6,14.6L303.7,270l46.7-247.5L373.5,9.6z"
		/>
	<path id="path16" class="st1" d="M113.1,79.4C148.2,44.3,186,22.5,233.9,9.6l24.6,14.8L303.7,270L114.9,111.9L113.1,79.4z"/>
	<path id="path14" class="st2" d="M233.9,9.6c47.9-12.8,91.6-12.8,139.5,0L303.7,270L233.9,9.6z"/>
	<path id="path20" class="st3" d="M43.3,339.8c-12.8-47.9-12.8-91.6,0-139.5l29.1-15.5L303.7,270L69.4,353.1L43.3,339.8z"/>
	<path id="path18" class="st4" d="M43.3,200.2c12.8-47.9,34.7-85.8,69.8-120.8L303.7,270L43.3,200.2z"/>
	<path id="path24" class="st5" d="M233.9,530.4c-47.9-12.8-85.8-34.7-120.8-69.8l3.6-35l187-155.6l-44.9,247.6L233.9,530.4z"/>
	<path id="path22" class="st6" d="M113.1,460.6C78,425.5,56.2,387.7,43.3,339.8L303.7,270L113.1,460.6z"/>
	<path id="path28" class="st7" d="M494.3,460.6c-35.1,35.1-72.9,56.9-120.8,69.8l-25.8-14.6l-44-245.8l191.1,166.3l11.5,8.5
		L494.3,460.6z"/>
	<path id="path26" class="st8" d="M373.5,530.4c-47.9,12.8-91.6,12.8-139.5,0L303.7,270L373.5,530.4z"/>
</g>
<circle id="circle32" class="st9" cx="303.7" cy="270" r="130.2"/>
</svg>
